# xmcd CD database file
#
# Track frame offsets:
#	150
#	18295
#	37010
#	55180
#
# Disc length: 984 seconds
#
# Revision: 0
# Processed by: cddbd v1.5PL3 Copyright (c) Steve Scherf et al.
# Submitted via: CDex 1.51
#
DISCID=2a03d604
DTITLE=きただにひろし - ウィーアー!
DYEAR=1900
DGENRE=アニメ
TTITLE0=ウィーアー!
TTITLE1=MUSIC
TTITLE2=ウィーアー!(オリジナル・カラオケ)
TTITLE3=MUSIC(オリジナル・カラオケ)
EXTD=
EXTT0=
EXTT1=
EXTT2=
EXTT3=
PLAYORDER=
